<?xml version="1.0" standalone="no"?>
<!DOCTYPE svg PUBLIC "-//W3C//DTD SVG 20010904//EN"
 "http://www.w3.org/TR/2001/REC-SVG-20010904/DTD/svg10.dtd">
<svg version="1.0" xmlns="http://www.w3.org/2000/svg"
 width="1000.000000pt" height="623.000000pt" viewBox="0 0 1000.000000 623.000000"
 preserveAspectRatio="xMidYMid meet">

<g transform="translate(0.000000,623.000000) scale(0.100000,-0.100000)"
fill="#000000" stroke="none">
<path d="M5875 6224 c-16 -2 -73 -9 -125 -15 -411 -47 -823 -183 -1185 -392
-195 -112 -399 -264 -580 -431 l-60 -55 79 -1 79 0 61 53 c268 233 565 412
901 542 190 74 406 130 635 167 128 20 180 23 440 23 338 -1 461 -15 745 -86
1111 -279 1973 -1186 2204 -2319 42 -207 55 -346 55 -595 0 -241 -12 -378 -50
-570 -181 -924 -780 -1711 -1618 -2124 -292 -145 -567 -231 -896 -283 -126
-19 -183 -22 -440 -22 -257 0 -314 3 -440 22 -582 91 -1101 330 -1536 709
l-61 53 -79 0 -79 -1 65 -60 c474 -440 1035 -709 1690 -811 197 -30 645 -33
845 -5 700 99 1315 403 1800 891 707 712 1025 1688 874 2683 -177 1169 -1030
2153 -2165 2498 -307 94 -521 126 -869 130 -143 2 -273 1 -290 -1z"/>
<path d="M4231 5004 c-96 -19 -175 -35 -176 -37 -1 -1 -141 -353 -312 -782
l-311 -780 -115 -60 c-127 -66 -118 -54 -133 -172 l-7 -53 394 0 c217 0 399 4
406 8 6 4 15 42 20 85 11 93 23 82 -154 143 -78 27 -113 44 -112 54 0 8 24 80
52 160 l52 145 306 3 306 2 52 -146 c29 -80 55 -152 57 -158 3 -8 -43 -35
-124 -74 l-129 -61 -6 -53 c-4 -29 -7 -65 -7 -80 l0 -28 464 0 464 0 7 68 c3
37 7 75 8 85 2 14 -25 32 -107 75 l-109 57 -82 230 c-45 127 -136 383 -203
570 -67 187 -162 450 -210 585 -58 161 -93 245 -102 247 -8 0 -93 -14 -189
-33z m33 -725 c58 -173 106 -318 106 -322 0 -4 -101 -7 -225 -7 -124 0 -225 2
-225 5 0 4 199 564 221 624 5 13 11 22 13 20 2 -2 51 -146 110 -320z"/>
<path d="M2086 4948 c-4 -29 -9 -67 -12 -83 l-5 -31 135 -43 136 -44 0 -671
c0 -736 0 -736 -61 -881 -42 -101 -113 -206 -199 -295 l-68 -72 61 -94 c33
-52 66 -94 72 -94 31 0 258 172 356 270 93 92 112 117 153 200 98 201 106 270
113 1026 l6 620 114 35 c64 19 121 39 128 44 8 6 16 43 20 88 l7 77 -475 0
-474 0 -7 -52z"/>
<path d="M5495 4948 c-4 -29 -7 -68 -8 -87 l-2 -33 135 -37 135 -36 -3 -50
c-6 -124 -93 -1309 -96 -1312 -2 -2 -56 -24 -121 -48 -65 -25 -121 -48 -124
-51 -10 -9 -29 -158 -22 -167 4 -4 180 -6 391 -5 l384 3 7 40 c4 22 9 63 13
91 l6 50 -115 38 c-108 36 -115 40 -115 65 -1 63 62 988 68 1004 5 11 86 -218
220 -615 117 -348 214 -638 216 -644 4 -12 278 18 305 34 7 4 33 61 56 127
143 401 266 745 326 915 86 241 79 224 83 219 3 -2 20 -220 40 -484 20 -264
38 -501 41 -526 l5 -46 -105 -49 c-95 -44 -105 -51 -110 -78 -3 -17 -9 -55
-13 -83 -5 -29 -7 -55 -4 -58 3 -3 200 -5 438 -5 498 0 447 -12 458 110 l6 76
-132 38 c-73 22 -134 40 -136 41 -2 2 -92 1328 -92 1361 0 8 24 20 58 30 31 8
87 24 123 35 l67 19 6 58 c4 31 9 69 12 85 l6 27 -379 0 -379 0 -101 -272
c-55 -150 -157 -425 -224 -610 -68 -186 -126 -338 -129 -338 -3 0 -70 195
-149 433 -79 237 -174 512 -210 610 l-66 177 -382 0 -382 0 -6 -52z"/>
<path d="M6168 2038 c-32 -11 -58 -23 -58 -28 0 -5 14 -11 30 -15 l30 -7 -2
-381 -3 -382 -35 -6 c-19 -4 17 -6 80 -6 63 0 99 2 80 6 l-35 6 0 204 0 204
28 21 c40 30 109 29 139 -2 22 -22 23 -28 23 -225 l0 -202 -35 -6 c-19 -4 17
-6 80 -6 63 0 99 2 80 6 l-35 6 -5 210 c-4 181 -8 215 -23 238 -38 58 -137 62
-213 9 l-44 -32 0 205 c0 158 -3 205 -12 204 -7 0 -39 -10 -70 -21z"/>
<path d="M7835 2038 c-33 -11 -62 -21 -64 -23 -2 -2 13 -11 33 -19 l36 -15 -2
-378 -3 -378 -35 -6 c-19 -4 17 -6 80 -6 63 0 99 2 80 6 l-35 6 -3 418 c-2
324 -5 417 -15 416 -6 0 -39 -10 -72 -21z"/>
<path d="M5233 2039 c-118 -15 -193 -102 -193 -225 0 -104 47 -156 205 -230
177 -83 218 -124 218 -220 0 -103 -65 -159 -183 -158 -119 1 -182 58 -225 207
-9 32 -19 57 -21 54 -9 -8 9 -277 18 -277 5 0 14 14 20 30 5 17 13 29 17 27
145 -79 276 -75 370 9 88 79 106 201 43 289 -24 32 -56 54 -167 111 -152 79
-200 117 -215 174 -32 118 55 212 182 197 87 -11 158 -89 189 -209 7 -27 16
-48 19 -48 9 0 -1 243 -10 254 -5 4 -14 -2 -20 -15 -7 -13 -14 -26 -16 -27 -1
-2 -22 8 -47 22 -54 32 -116 44 -184 35z"/>
<path d="M2060 2021 c25 -4 51 -10 58 -14 19 -13 18 -765 -2 -773 -8 -3 -36
-9 -62 -14 -37 -6 -16 -8 86 -8 114 0 127 2 80 9 -30 5 -58 15 -62 22 -8 12
-12 714 -4 706 3 -4 88 -205 263 -626 30 -73 58 -133 62 -133 4 0 70 167 146
371 76 203 143 372 147 375 5 3 7 -156 6 -353 l-3 -358 -50 -6 c-27 -3 18 -6
100 -6 83 0 128 3 100 6 l-50 6 -3 393 -2 392 37 0 c21 0 45 5 53 10 10 7 -15
10 -81 10 -83 0 -98 -3 -104 -17 -4 -10 -61 -162 -127 -338 -66 -176 -123
-326 -127 -333 -5 -8 -57 107 -136 295 -71 169 -137 327 -147 351 l-19 42
-102 -1 c-74 -1 -90 -3 -57 -8z"/>
<path d="M4003 1924 c-15 -24 -15 -29 -2 -53 11 -20 22 -26 49 -26 27 0 38 6
49 26 13 24 13 29 -2 53 -12 18 -26 26 -47 26 -21 0 -35 -8 -47 -26z"/>
<path d="M3641 1702 c-50 -25 -73 -61 -73 -115 0 -68 23 -98 123 -156 76 -44
90 -56 98 -86 12 -45 -2 -99 -32 -120 -63 -44 -145 2 -167 95 -7 27 -15 50
-19 50 -7 0 -2 -152 5 -159 2 -3 42 -7 88 -9 123 -6 176 24 196 113 10 46 -3
101 -32 132 -12 14 -53 40 -90 59 -78 39 -98 64 -98 120 0 48 21 72 71 80 45
8 82 -21 105 -81 9 -25 21 -45 25 -45 5 0 9 27 9 60 0 56 -2 61 -26 70 -42 16
-145 12 -183 -8z"/>
<path d="M4011 1699 c-30 -10 -56 -21 -59 -24 -3 -3 11 -12 32 -20 l36 -15 -2
-208 -3 -207 -35 -6 c-19 -4 14 -7 75 -7 109 0 115 1 63 12 l-28 6 0 245 c0
190 -3 245 -12 244 -7 0 -37 -9 -67 -20z"/>
<path d="M4380 1704 c-90 -39 -132 -112 -138 -239 -3 -83 -1 -94 25 -144 40
-79 88 -114 163 -119 33 -2 71 -2 84 2 33 8 93 61 112 97 22 43 17 45 -20 7
-75 -78 -203 -69 -256 17 -44 70 -43 227 2 307 26 46 73 78 115 78 36 0 51
-15 67 -72 17 -55 43 -74 74 -52 12 8 22 23 22 33 0 27 -39 72 -76 87 -43 18
-130 17 -174 -2z"/>
<path d="M5795 1706 c-94 -41 -137 -114 -143 -241 -3 -83 -1 -94 25 -144 50
-98 130 -137 238 -117 40 8 99 55 121 97 22 44 17 45 -22 7 -92 -92 -239 -60
-275 61 -6 21 -10 76 -7 122 6 136 60 219 145 219 36 0 52 -19 73 -83 15 -47
39 -62 68 -41 12 8 22 23 22 33 0 27 -39 72 -76 87 -42 17 -129 17 -169 0z"/>
<path d="M6804 1701 c-49 -23 -107 -88 -122 -140 -17 -55 -15 -159 4 -214 19
-55 70 -112 119 -133 44 -18 143 -18 186 0 83 35 131 114 137 224 5 92 -11
150 -56 203 -46 53 -101 79 -172 79 -32 0 -72 -8 -96 -19z m142 -1 c50 -19 79
-72 95 -169 20 -130 -19 -274 -83 -307 -35 -18 -82 -18 -118 1 -85 44 -116
272 -55 400 36 75 92 101 161 75z"/>
<path d="M7362 1699 c-181 -90 -174 -407 10 -484 51 -21 143 -19 194 4 188 85
169 437 -26 491 -59 16 -131 12 -178 -11z m166 -9 c49 -30 74 -95 80 -205 9
-169 -46 -275 -141 -275 -53 0 -88 24 -120 83 -19 37 -22 58 -22 162 0 102 3
127 22 167 24 53 71 88 118 88 17 0 45 -9 63 -20z"/>
<path d="M3032 1698 l37 -10 3 -215 3 -215 33 -29 c56 -50 143 -37 219 34 l22
20 -4 -36 c-3 -20 -1 -38 3 -40 4 -2 36 9 72 26 l65 30 -32 9 -33 9 0 214 0
215 -77 -1 c-71 -1 -75 -2 -40 -11 l37 -10 0 -195 0 -196 -27 -23 c-55 -47
-133 -41 -153 12 -6 14 -10 115 -10 225 l0 199 -77 -1 c-71 -1 -74 -2 -41 -11z"/>
</g>
</svg>
